ply
format ascii 1.0
comment Exported by Aspose.3D 24.6.0
element vertex 40
property float x
property float y
property float z
property float nx
property float ny
property float nz
element face 76
property list uchar int vertex_index
end_header
-23.466885 56.841362 -416.85156 -0.23392075447145033 0.4788723198845337 -0.696984875951151
-41.99843 50.070663 -401.60156 -0.7649577374813799 0.2573589137686444 -0.42582063387350033
-26.995361 -58.281544 -426.8944 -0.43250685100050623 -0.10540419643541095 -0.8453075859544011
22.175121 49.533566 -410.44812 0.6932142300873502 0.21382589485820014 -0.639397391897548
23.64291 -65.54454 -425.5568 0.37545881913688367 -0.3034581228545961 -0.5570664102728127
31.514687 -43.042946 -413.42673 0.8521586716859797 0.052851767914864706 -0.4990209768638231
1.9310151 47.065315 -421.12354 0.1809938116184262 0.27418995635719867 -0.8867174017611494
10.551893 57.01964 -416.842 0.3286998372161372 0.4554698739308412 -0.7052867868820855
-34.441135 -69.03697 -418.9813 -0.31011825884566735 -0.550611533546408 -0.3543298515824076
1.2004784 67.230225 -404.98553 0.18562290213927637 0.4109631630355488 -0.5608246684549125
-28.11411 65.75054 -393.44592 -0.5938188034559744 0.318338136844637 -0.3623564729159104
-11.961228 -66.68571 -428.99295 -0.07648962566149449 -0.6834324955282265 -0.481389857875692
-2.6842775 -66.798805 -392.25098 0.0454007467789147 -0.9876930983551071 -0.1009395751743475
39.153465 -68.35563 -396.81216 0.6499204504561278 -0.3248821623667415 -0.05969729315236588
-11.209612 50.27624 -421.33304 -0.015469361706486393 0.33549085763595177 -0.8454550272273736
-43.56237 -69.183174 -397.02148 -0.7497001131847327 -0.3211821452694753 0.003395634883114127
32.693462 55.318527 -392.1146 0.7229190869537578 0.46801773340214825 -0.19806676779358995
-19.548769 89.98099 -405.41586 -0.1733494055682221 0.4559954896142475 -0.36566133953392904
12.630963 90.44841 -400.27277 0.46812666042437967 0.1752198801928556 -0.42739492458869066
-3.4745698 47.179356 -339.9665 0.10693880886536762 0.23499987288017812 0.8543207928219407
15.315191 40.333206 -346.29318 0.5769597508649993 0.032712827085237914 0.7467490226704726
3.3762438 -67.9633 -353.55527 0.17371998187848514 -0.25432024994143465 0.891474956743642
4.150066 -61.277744 -434.45923 0.015496936630634518 -0.20781255330600723 -0.866536870748428
-6.1157427 -52.612286 -434.03915 -0.1557282627520913 0.03810668148974964 -0.9601675985699955
-16.30665 -75.143936 -356.59756 -0.14150783101711506 -0.5990668422850364 0.4139794662342364
-39.34989 86.75888 -381.67636 -0.6465984112196406 0.08784069579762417 -0.04343720601627585
-24.35146 47.210865 -344.005 -0.3994715997428101 0.2827475400793504 0.7329139705450998
-0.114955954 62.154648 -353.85953 0.09174335235204378 0.249558377052104 0.6743839826951317
-24.176836 83.944664 -350.41953 -0.2343002904414762 0.3439968428034684 0.41576311163103163
7.5077324 83.71149 -349.60437 0.3899153999588525 0.06062861975275381 0.5549321325576735
18.37467 65.12219 -375.5871 0.6814009457499854 0.21153210341222672 0.08933855051034104
-46.844448 48.84069 -382.47995 -0.8232427987488227 0.3935566116400575 -0.0035354963707820656
-43.281166 45.61353 -362.7681 -0.802009196863994 0.18789848222713762 0.394065376167382
33.30125 47.307446 -370.86804 0.8796595514188996 0.1153815995144276 0.3185362702334081
-29.709803 65.757164 -368.6067 -0.6404081544546074 0.21051552553039826 0.3479024809875241
22.02814 87.91252 -373.29538 0.34510646279824375 0.5340842049672273 0.10793723446342927
22.3721 -72.18486 -361.66196 0.35502059863592195 -0.5258963000054317 0.3844506359986611
-34.83439 -66.10343 -367.76962 -0.6865584885240994 -0.2738124173913853 0.5182964578992103
33.506294 -57.583633 -373.69617 0.8494129109141434 -0.10222900787468749 0.4627092541226787
25.971348 54.62983 -360.6689 0.5726138635558343 0.5255564491110152 0.4745451356204156
3 0 1 2
3 3 4 5
3 0 6 7
3 2 1 8
3 0 9 10
3 11 8 12
3 4 13 5
3 7 9 0
3 14 6 0
3 4 11 12
3 13 4 12
3 7 4 3
3 15 8 1
3 3 16 7
3 17 9 18
3 10 1 0
3 19 20 21
3 2 22 23
3 16 9 7
3 16 3 5
3 5 13 16
3 24 12 8
3 10 9 17
3 6 23 22
3 10 17 25
3 26 27 19
3 28 29 27
3 30 9 16
3 31 1 10
3 31 15 1
3 30 18 9
3 2 11 22
3 26 19 24
3 19 21 24
3 8 15 24
3 32 15 31
3 33 16 13
3 31 10 34
3 35 18 30
3 36 21 20
3 31 34 32
3 15 32 37
3 17 18 35
3 38 36 20
3 0 2 23
3 23 14 0
3 25 34 10
3 34 27 26
3 36 38 13
3 39 30 16
3 28 17 35
3 13 12 36
3 27 39 19
3 20 19 39
3 36 12 24
3 17 28 25
3 24 15 37
3 33 13 38
3 28 35 29
3 33 39 16
3 25 28 34
3 37 26 24
3 30 29 35
3 32 34 26
3 2 8 11
3 4 22 11
3 27 34 28
3 27 30 39
3 30 27 29
3 14 23 6
3 6 22 4
3 20 33 38
3 4 7 6
3 33 20 39
3 32 26 37
3 21 36 24
