# Aspose.3D Wavefront OBJ Exporter
# Copyright 2004-2024 Aspose Pty Ltd.
# File created: 07/22/2024 05:24:30

g obj_53566780

#
# object obj_53566780
#

v 23.466885 -56.841362 416.85156
v 41.99843 -50.070663 401.60156
v 26.995361 58.281544 426.8944
v -22.175121 -49.533566 410.44812
v -23.64291 65.54454 425.5568
v -31.514687 43.042946 413.42673
v -1.9310151 -47.065315 421.12354
v -10.551893 -57.01964 416.842
v 34.441135 69.03697 418.9813
v -1.2004784 -67.230225 404.98553
v 28.11411 -65.75054 393.44592
v 11.961228 66.68571 428.99295
v 2.6842775 66.798805 392.25098
v -39.153465 68.35563 396.81216
v 11.209612 -50.27624 421.33304
v 43.56237 69.183174 397.02148
v -32.693462 -55.318527 392.1146
v 19.548769 -89.98099 405.41586
v -12.630963 -90.44841 400.27277
v 3.4745698 -47.179356 339.9665
v -15.315191 -40.333206 346.29318
v -3.3762438 67.9633 353.55527
v -4.150066 61.277744 434.45923
v 6.1157427 52.612286 434.03915
v 16.30665 75.143936 356.59756
v 39.34989 -86.75888 381.67636
v 24.35146 -47.210865 344.005
v 0.114955954 -62.154648 353.85953
v 24.176836 -83.944664 350.41953
v -7.5077324 -83.71149 349.60437
v -18.37467 -65.12219 375.5871
v 46.844448 -48.84069 382.47995
v 43.281166 -45.61353 362.7681
v -33.30125 -47.307446 370.86804
v 29.709803 -65.757164 368.6067
v -22.02814 -87.91252 373.29538
v -22.3721 72.18486 361.66196
v 34.83439 66.10343 367.76962
v -33.506294 57.583633 373.69617
v -25.971348 -54.62983 360.6689
# 40 vertices

vn 0.65157557 -0.08572238 0.7537247
vn -0.74383354 -0.09632138 0.6613878
vn 0.0018198574 -0.3964474 0.91805565
vn 0.7584136 -0.046738673 0.65009564
vn 0.19618596 -0.9028395 0.38261205
vn -0.092360094 0.99537605 0.026383866
vn -0.87697655 0.049106713 0.47801754
vn 0.0037795776 -0.7562609 0.6542592
vn -0.19979313 -0.7788566 0.59452933
vn -0.033136167 0.99938536 0.011442804
vn 0.04504588 0.9963048 0.0731272
vn -0.53532076 -0.11665951 0.83655375
vn 0.9234953 0.00262154 0.38360086
vn -0.6451454 -0.54001373 0.54052985
vn -0.15488978 -0.12272133 0.98027986
vn 0.5806602 -0.7158638 0.38777915
vn -0.28622532 0.09548642 -0.95339257
vn 0.2512417 0.25234208 0.9344523
vn -0.45296893 -0.82030547 0.3491675
vn -0.8485572 -0.10230894 0.51911813
vn -0.93926746 -0.061883464 0.33756047
vn -0.19607802 0.96876204 0.15183397
vn 0.3329304 0.32041514 0.8868436
vn -0.06346926 -0.12319984 0.9903502
vn 0.7638384 0.047940113 0.64362454
vn 0.13645737 -0.69003797 -0.71079326
vn 0.026634065 0.18451391 -0.98246896
vn -0.4102126 -0.8949506 0.17546801
vn 0.7062019 -0.6951644 0.1342583
vn 0.9693999 -0.003285725 0.24546516
vn -0.8141849 0.2999206 0.49714246
vn 0.24982902 0.21093938 0.94503444
vn 0.18887496 0.11281533 -0.97549933
vn 0.10767609 0.12283825 -0.98656815
vn 0.12792523 0.98998374 0.0597261
vn 0.98425674 0.048317734 -0.17001219
vn -0.9985828 -0.05249326 0.008773135
vn 0.6835662 -0.72855455 0.044107094
vn -0.9345371 0.115982935 0.33643472
vn -0.37102136 0.10279105 -0.92291766
vn 0.7727893 -0.58909607 -0.23614088
vn 0.95228523 0.085122995 -0.2930988
vn 0.031105144 -0.9940617 -0.10427735
vn -0.7579261 0.04138765 -0.6510261
vn 0.34466767 -0.09205967 0.9341998
vn 0.2924703 -0.1029283 0.9507191
vn 0.89334846 0.44570008 0.057270575
vn 0.21551223 -0.75661504 -0.61732346
vn -0.8599907 0.34870347 -0.37258816
vn -0.6769922 -0.7182875 -0.16045135
vn 0.032700863 -0.99379355 -0.10632559
vn 0.051258925 0.9898823 0.13230883
vn -0.35898858 -0.5902297 -0.7230187
vn -0.42942736 -0.46087158 -0.7766528
vn -0.047135007 0.9764481 0.21054079
vn 0.034411386 -0.9937516 -0.10617703
vn 0.5408384 0.80433255 -0.24605493
vn -0.9709306 0.0045546084 -0.23931795
vn -0.0027107021 -0.9843485 -0.17621209
vn -0.8116261 -0.5538988 -0.18563162
vn 0.89479536 0.14874864 -0.4209693
vn 0.5552703 0.121189445 -0.8227928
vn -0.85209054 0.18579976 -0.4893059
vn 0.6028747 -0.56844175 -0.5598357
vn 0.33931357 0.39366445 0.8543387
vn -0.08119819 0.81779724 0.5697495
vn 0.41997078 0.57465 -0.7024257
vn -0.35029483 -0.8407102 -0.41291618
vn -0.7314945 0.37152037 -0.57174164
vn -0.0462691 -0.12468768 0.99111664
vn -0.43388793 -0.1188161 0.89309794
vn -0.8088042 0.014270309 -0.58790475
vn -0.3443633 -0.103132136 0.9331547
vn -0.8083541 0.010659168 -0.58860016
vn 0.69784003 0.0846047 -0.7112393
vn -0.1453093 0.69616526 -0.7030214
# 76 vertex normals

s 1
f 1//1 2//1 3//1
f 4//2 5//2 6//2
f 1//3 7//3 8//3
f 3//4 2//4 9//4
f 1//5 10//5 11//5
f 12//6 9//6 13//6
f 5//7 14//7 6//7
f 8//8 10//8 1//8
f 15//9 7//9 1//9
f 5//10 12//10 13//10
f 14//11 5//11 13//11
f 8//12 5//12 4//12
f 16//13 9//13 2//13
f 4//14 17//14 8//14
f 18//15 10//15 19//15
f 11//16 2//16 1//16
f 20//17 21//17 22//17
f 3//18 23//18 24//18
f 17//19 10//19 8//19
f 17//20 4//20 6//20
f 6//21 14//21 17//21
f 25//22 13//22 9//22
f 11//23 10//23 18//23
f 7//24 24//24 23//24
f 11//25 18//25 26//25
f 27//26 28//26 20//26
f 29//27 30//27 28//27
f 31//28 10//28 17//28
f 32//29 2//29 11//29
f 32//30 16//30 2//30
f 31//31 19//31 10//31
f 3//32 12//32 23//32
f 27//33 20//33 25//33
f 20//34 22//34 25//34
f 9//35 16//35 25//35
f 33//36 16//36 32//36
f 34//37 17//37 14//37
f 32//38 11//38 35//38
f 36//39 19//39 31//39
f 37//40 22//40 21//40
f 32//41 35//41 33//41
f 16//42 33//42 38//42
f 18//43 19//43 36//43
f 39//44 37//44 21//44
f 1//45 3//45 24//45
f 24//46 15//46 1//46
f 26//47 35//47 11//47
f 35//48 28//48 27//48
f 37//49 39//49 14//49
f 40//50 31//50 17//50
f 29//51 18//51 36//51
f 14//52 13//52 37//52
f 28//53 40//53 20//53
f 21//54 20//54 40//54
f 37//55 13//55 25//55
f 18//56 29//56 26//56
f 25//57 16//57 38//57
f 34//58 14//58 39//58
f 29//59 36//59 30//59
f 34//60 40//60 17//60
f 26//61 29//61 35//61
f 38//62 27//62 25//62
f 31//63 30//63 36//63
f 33//64 35//64 27//64
f 3//65 9//65 12//65
f 5//66 23//66 12//66
f 28//67 35//67 29//67
f 28//68 31//68 40//68
f 31//69 28//69 30//69
f 15//70 24//70 7//70
f 7//71 23//71 5//71
f 21//72 34//72 39//72
f 5//73 8//73 7//73
f 34//74 21//74 40//74
f 33//75 27//75 38//75
f 22//76 37//76 25//76
#76 polygons

